<?xml version="1.0" encoding="UTF-8" standalone="no"?>
<!DOCTYPE svg PUBLIC "-//W3C//DTD SVG 1.1//EN"
 "http://www.w3.org/Graphics/SVG/1.1/DTD/svg11.dtd">
<!-- Generated by graphviz version 2.43.0 (0)
 -->
<!-- Title: %3 Pages: 1 -->
<svg width="2573pt" height="692pt"
 viewBox="0.00 0.00 2573.26 692.00" xmlns="http://www.w3.org/2000/svg" xmlns:xlink="http://www.w3.org/1999/xlink">
<g id="graph0" class="graph" transform="scale(1 1) rotate(0) translate(4 688)">
<title>%3</title>
<polygon fill="white" stroke="transparent" points="-4,4 -4,-688 2569.26,-688 2569.26,4 -4,4"/>
<!-- [root] module.ec2_web_server.aws_eip.main (expand) -->
<g id="node1" class="node">
<title>[root] module.ec2_web_server.aws_eip.main (expand)</title>
<polygon fill="none" stroke="black" points="1397.02,-468 1111.02,-468 1111.02,-432 1397.02,-432 1397.02,-468"/>
<text text-anchor="middle" x="1254.02" y="-446.3" font-family="Times,serif" font-size="14.00">module.ec2_web_server.aws_eip.main</text>
</g>
<!-- [root] module.ec2_web_server.aws_instance.main (expand) -->
<g id="node2" class="node">
<title>[root] module.ec2_web_server.aws_instance.main (expand)</title>
<polygon fill="none" stroke="black" points="1232.02,-396 908.02,-396 908.02,-360 1232.02,-360 1232.02,-396"/>
<text text-anchor="middle" x="1070.02" y="-374.3" font-family="Times,serif" font-size="14.00">module.ec2_web_server.aws_instance.main</text>
</g>
<!-- [root] module.ec2_web_server.aws_eip.main (expand)&#45;&gt;[root] module.ec2_web_server.aws_instance.main (expand) -->
<g id="edge4" class="edge">
<title>[root] module.ec2_web_server.aws_eip.main (expand)&#45;&gt;[root] module.ec2_web_server.aws_instance.main (expand)</title>
<path fill="none" stroke="black" d="M1209.01,-431.88C1183.52,-422.18 1151.46,-409.98 1124.55,-399.74"/>
<polygon fill="black" stroke="black" points="1125.48,-396.35 1114.89,-396.07 1122.99,-402.9 1125.48,-396.35"/>
</g>
<!-- [root] module.ec2_web_server.aws_internet_gateway.main (expand) -->
<g id="node3" class="node">
<title>[root] module.ec2_web_server.aws_internet_gateway.main (expand)</title>
<polygon fill="none" stroke="black" points="2013.02,-396 1627.02,-396 1627.02,-360 2013.02,-360 2013.02,-396"/>
<text text-anchor="middle" x="1820.02" y="-374.3" font-family="Times,serif" font-size="14.00">module.ec2_web_server.aws_internet_gateway.main</text>
</g>
<!-- [root] module.ec2_web_server.aws_eip.main (expand)&#45;&gt;[root] module.ec2_web_server.aws_internet_gateway.main (expand) -->
<g id="edge5" class="edge">
<title>[root] module.ec2_web_server.aws_eip.main (expand)&#45;&gt;[root] module.ec2_web_server.aws_internet_gateway.main (expand)</title>
<path fill="none" stroke="black" d="M1391.76,-431.97C1476.59,-421.47 1585.3,-408.03 1671.97,-397.31"/>
<polygon fill="black" stroke="black" points="1672.67,-400.75 1682.16,-396.05 1671.81,-393.8 1672.67,-400.75"/>
</g>
<!-- [root] module.ec2_web_server.aws_network_interface.main (expand) -->
<g id="node4" class="node">
<title>[root] module.ec2_web_server.aws_network_interface.main (expand)</title>
<polygon fill="none" stroke="black" points="1570.52,-324 1177.52,-324 1177.52,-288 1570.52,-288 1570.52,-324"/>
<text text-anchor="middle" x="1374.02" y="-302.3" font-family="Times,serif" font-size="14.00">module.ec2_web_server.aws_network_interface.main</text>
</g>
<!-- [root] module.ec2_web_server.aws_instance.main (expand)&#45;&gt;[root] module.ec2_web_server.aws_network_interface.main (expand) -->
<g id="edge6" class="edge">
<title>[root] module.ec2_web_server.aws_instance.main (expand)&#45;&gt;[root] module.ec2_web_server.aws_network_interface.main (expand)</title>
<path fill="none" stroke="black" d="M1144,-359.97C1188.13,-349.8 1244.29,-336.87 1290.08,-326.33"/>
<polygon fill="black" stroke="black" points="1291.02,-329.7 1299.98,-324.05 1289.45,-322.88 1291.02,-329.7"/>
</g>
<!-- [root] module.ec2_web_server.var.ec2_instance_type (expand) -->
<g id="node18" class="node">
<title>[root] module.ec2_web_server.var.ec2_instance_type (expand)</title>
<ellipse fill="none" stroke="black" cx="297.02" cy="-306" rx="297.05" ry="18"/>
<text text-anchor="middle" x="297.02" y="-302.3" font-family="Times,serif" font-size="14.00">[root] module.ec2_web_server.var.ec2_instance_type (expand)</text>
</g>
<!-- [root] module.ec2_web_server.aws_instance.main (expand)&#45;&gt;[root] module.ec2_web_server.var.ec2_instance_type (expand) -->
<g id="edge7" class="edge">
<title>[root] module.ec2_web_server.aws_instance.main (expand)&#45;&gt;[root] module.ec2_web_server.var.ec2_instance_type (expand)</title>
<path fill="none" stroke="black" d="M907.98,-362.33C778,-350.56 596.19,-334.09 464.73,-322.19"/>
<polygon fill="black" stroke="black" points="464.84,-318.68 454.56,-321.27 464.2,-325.65 464.84,-318.68"/>
</g>
<!-- [root] module.ec2_web_server.var.ec2_pem_key (expand) -->
<g id="node19" class="node">
<title>[root] module.ec2_web_server.var.ec2_pem_key (expand)</title>
<ellipse fill="none" stroke="black" cx="886.02" cy="-306" rx="273.75" ry="18"/>
<text text-anchor="middle" x="886.02" y="-302.3" font-family="Times,serif" font-size="14.00">[root] module.ec2_web_server.var.ec2_pem_key (expand)</text>
</g>
<!-- [root] module.ec2_web_server.aws_instance.main (expand)&#45;&gt;[root] module.ec2_web_server.var.ec2_pem_key (expand) -->
<g id="edge8" class="edge">
<title>[root] module.ec2_web_server.aws_instance.main (expand)&#45;&gt;[root] module.ec2_web_server.var.ec2_pem_key (expand)</title>
<path fill="none" stroke="black" d="M1025.01,-359.88C999.33,-350.11 966.98,-337.8 939.95,-327.51"/>
<polygon fill="black" stroke="black" points="940.84,-324.11 930.25,-323.83 938.35,-330.65 940.84,-324.11"/>
</g>
<!-- [root] module.ec2_web_server.aws_vpc.main (expand) -->
<g id="node9" class="node">
<title>[root] module.ec2_web_server.aws_vpc.main (expand)</title>
<polygon fill="none" stroke="black" points="1743.52,-180 1454.52,-180 1454.52,-144 1743.52,-144 1743.52,-180"/>
<text text-anchor="middle" x="1599.02" y="-158.3" font-family="Times,serif" font-size="14.00">module.ec2_web_server.aws_vpc.main</text>
</g>
<!-- [root] module.ec2_web_server.aws_internet_gateway.main (expand)&#45;&gt;[root] module.ec2_web_server.aws_vpc.main (expand) -->
<g id="edge9" class="edge">
<title>[root] module.ec2_web_server.aws_internet_gateway.main (expand)&#45;&gt;[root] module.ec2_web_server.aws_vpc.main (expand)</title>
<path fill="none" stroke="black" d="M1819.07,-359.8C1816.32,-327.15 1805.74,-255.9 1765.02,-216 1750.45,-201.71 1732.03,-191.28 1712.8,-183.65"/>
<polygon fill="black" stroke="black" points="1713.9,-180.33 1703.31,-180.13 1711.47,-186.89 1713.9,-180.33"/>
</g>
<!-- [root] module.ec2_web_server.aws_security_group.main (expand) -->
<g id="node7" class="node">
<title>[root] module.ec2_web_server.aws_security_group.main (expand)</title>
<polygon fill="none" stroke="black" points="1424.52,-252 1053.52,-252 1053.52,-216 1424.52,-216 1424.52,-252"/>
<text text-anchor="middle" x="1239.02" y="-230.3" font-family="Times,serif" font-size="14.00">module.ec2_web_server.aws_security_group.main</text>
</g>
<!-- [root] module.ec2_web_server.aws_network_interface.main (expand)&#45;&gt;[root] module.ec2_web_server.aws_security_group.main (expand) -->
<g id="edge10" class="edge">
<title>[root] module.ec2_web_server.aws_network_interface.main (expand)&#45;&gt;[root] module.ec2_web_server.aws_security_group.main (expand)</title>
<path fill="none" stroke="black" d="M1341,-287.88C1322.94,-278.51 1300.38,-266.81 1281.07,-256.8"/>
<polygon fill="black" stroke="black" points="1282.66,-253.69 1272.18,-252.19 1279.44,-259.9 1282.66,-253.69"/>
</g>
<!-- [root] module.ec2_web_server.aws_subnet.main (expand) -->
<g id="node8" class="node">
<title>[root] module.ec2_web_server.aws_subnet.main (expand)</title>
<polygon fill="none" stroke="black" points="1755.52,-252 1442.52,-252 1442.52,-216 1755.52,-216 1755.52,-252"/>
<text text-anchor="middle" x="1599.02" y="-230.3" font-family="Times,serif" font-size="14.00">module.ec2_web_server.aws_subnet.main</text>
</g>
<!-- [root] module.ec2_web_server.aws_network_interface.main (expand)&#45;&gt;[root] module.ec2_web_server.aws_subnet.main (expand) -->
<g id="edge11" class="edge">
<title>[root] module.ec2_web_server.aws_network_interface.main (expand)&#45;&gt;[root] module.ec2_web_server.aws_subnet.main (expand)</title>
<path fill="none" stroke="black" d="M1428.78,-287.97C1460.62,-278.06 1500.94,-265.51 1534.35,-255.12"/>
<polygon fill="black" stroke="black" points="1535.52,-258.42 1544.02,-252.11 1533.44,-251.74 1535.52,-258.42"/>
</g>
<!-- [root] module.ec2_web_server.aws_route_table.main (expand) -->
<g id="node5" class="node">
<title>[root] module.ec2_web_server.aws_route_table.main (expand)</title>
<polygon fill="none" stroke="black" points="1992.52,-468 1647.52,-468 1647.52,-432 1992.52,-432 1992.52,-468"/>
<text text-anchor="middle" x="1820.02" y="-446.3" font-family="Times,serif" font-size="14.00">module.ec2_web_server.aws_route_table.main</text>
</g>
<!-- [root] module.ec2_web_server.aws_route_table.main (expand)&#45;&gt;[root] module.ec2_web_server.aws_internet_gateway.main (expand) -->
<g id="edge12" class="edge">
<title>[root] module.ec2_web_server.aws_route_table.main (expand)&#45;&gt;[root] module.ec2_web_server.aws_internet_gateway.main (expand)</title>
<path fill="none" stroke="black" d="M1820.02,-431.7C1820.02,-423.98 1820.02,-414.71 1820.02,-406.11"/>
<polygon fill="black" stroke="black" points="1823.52,-406.1 1820.02,-396.1 1816.52,-406.1 1823.52,-406.1"/>
</g>
<!-- [root] module.ec2_web_server.aws_route_table_association.main (expand) -->
<g id="node6" class="node">
<title>[root] module.ec2_web_server.aws_route_table_association.main (expand)</title>
<polygon fill="none" stroke="black" points="2035.52,-540 1604.52,-540 1604.52,-504 2035.52,-504 2035.52,-540"/>
<text text-anchor="middle" x="1820.02" y="-518.3" font-family="Times,serif" font-size="14.00">module.ec2_web_server.aws_route_table_association.main</text>
</g>
<!-- [root] module.ec2_web_server.aws_route_table_association.main (expand)&#45;&gt;[root] module.ec2_web_server.aws_route_table.main (expand) -->
<g id="edge13" class="edge">
<title>[root] module.ec2_web_server.aws_route_table_association.main (expand)&#45;&gt;[root] module.ec2_web_server.aws_route_table.main (expand)</title>
<path fill="none" stroke="black" d="M1820.02,-503.7C1820.02,-495.98 1820.02,-486.71 1820.02,-478.11"/>
<polygon fill="black" stroke="black" points="1823.52,-478.1 1820.02,-468.1 1816.52,-478.1 1823.52,-478.1"/>
</g>
<!-- [root] module.ec2_web_server.aws_route_table_association.main (expand)&#45;&gt;[root] module.ec2_web_server.aws_subnet.main (expand) -->
<g id="edge14" class="edge">
<title>[root] module.ec2_web_server.aws_route_table_association.main (expand)&#45;&gt;[root] module.ec2_web_server.aws_subnet.main (expand)</title>
<path fill="none" stroke="black" d="M1699.28,-503.9C1676.99,-496.01 1655.57,-484.56 1639.02,-468 1583.88,-412.79 1588.58,-311.08 1594.65,-262.38"/>
<polygon fill="black" stroke="black" points="1598.14,-262.67 1596.03,-252.29 1591.21,-261.72 1598.14,-262.67"/>
</g>
<!-- [root] module.ec2_web_server.aws_security_group.main (expand)&#45;&gt;[root] module.ec2_web_server.aws_vpc.main (expand) -->
<g id="edge15" class="edge">
<title>[root] module.ec2_web_server.aws_security_group.main (expand)&#45;&gt;[root] module.ec2_web_server.aws_vpc.main (expand)</title>
<path fill="none" stroke="black" d="M1326.63,-215.97C1379.43,-205.7 1446.79,-192.6 1501.31,-182"/>
<polygon fill="black" stroke="black" points="1502.19,-185.39 1511.34,-180.05 1500.85,-178.52 1502.19,-185.39"/>
</g>
<!-- [root] module.ec2_web_server.aws_subnet.main (expand)&#45;&gt;[root] module.ec2_web_server.aws_vpc.main (expand) -->
<g id="edge16" class="edge">
<title>[root] module.ec2_web_server.aws_subnet.main (expand)&#45;&gt;[root] module.ec2_web_server.aws_vpc.main (expand)</title>
<path fill="none" stroke="black" d="M1599.02,-215.7C1599.02,-207.98 1599.02,-198.71 1599.02,-190.11"/>
<polygon fill="black" stroke="black" points="1602.52,-190.1 1599.02,-180.1 1595.52,-190.1 1602.52,-190.1"/>
</g>
<!-- [root] module.ec2_web_server.var.region (expand) -->
<g id="node20" class="node">
<title>[root] module.ec2_web_server.var.region (expand)</title>
<ellipse fill="none" stroke="black" cx="976.02" cy="-90" rx="242.36" ry="18"/>
<text text-anchor="middle" x="976.02" y="-86.3" font-family="Times,serif" font-size="14.00">[root] module.ec2_web_server.var.region (expand)</text>
</g>
<!-- [root] module.ec2_web_server.aws_subnet.main (expand)&#45;&gt;[root] module.ec2_web_server.var.region (expand) -->
<g id="edge17" class="edge">
<title>[root] module.ec2_web_server.aws_subnet.main (expand)&#45;&gt;[root] module.ec2_web_server.var.region (expand)</title>
<path fill="none" stroke="black" d="M1524.18,-215.94C1406.42,-189.1 1178.77,-137.21 1057.19,-109.5"/>
<polygon fill="black" stroke="black" points="1057.72,-106.03 1047.2,-107.22 1056.17,-112.86 1057.72,-106.03"/>
</g>
<!-- [root] provider[&quot;registry.terraform.io/hashicorp/aws&quot;] -->
<g id="node10" class="node">
<title>[root] provider[&quot;registry.terraform.io/hashicorp/aws&quot;]</title>
<polygon fill="none" stroke="black" points="1562.02,-108 1236.76,-90 1562.02,-72 1887.29,-90 1562.02,-108"/>
<text text-anchor="middle" x="1562.02" y="-86.3" font-family="Times,serif" font-size="14.00">provider[&quot;registry.terraform.io/hashicorp/aws&quot;]</text>
</g>
<!-- [root] module.ec2_web_server.aws_vpc.main (expand)&#45;&gt;[root] provider[&quot;registry.terraform.io/hashicorp/aws&quot;] -->
<g id="edge19" class="edge">
<title>[root] module.ec2_web_server.aws_vpc.main (expand)&#45;&gt;[root] provider[&quot;registry.terraform.io/hashicorp/aws&quot;]</title>
<path fill="none" stroke="black" d="M1589.88,-143.7C1585.56,-135.52 1580.31,-125.6 1575.55,-116.58"/>
<polygon fill="black" stroke="black" points="1578.58,-114.83 1570.81,-107.62 1572.39,-118.1 1578.58,-114.83"/>
</g>
<!-- [root] module.ec2_web_server.var.tags (expand) -->
<g id="node21" class="node">
<title>[root] module.ec2_web_server.var.tags (expand)</title>
<ellipse fill="none" stroke="black" cx="2138.02" cy="-90" rx="232.86" ry="18"/>
<text text-anchor="middle" x="2138.02" y="-86.3" font-family="Times,serif" font-size="14.00">[root] module.ec2_web_server.var.tags (expand)</text>
</g>
<!-- [root] module.ec2_web_server.aws_vpc.main (expand)&#45;&gt;[root] module.ec2_web_server.var.tags (expand) -->
<g id="edge18" class="edge">
<title>[root] module.ec2_web_server.aws_vpc.main (expand)&#45;&gt;[root] module.ec2_web_server.var.tags (expand)</title>
<path fill="none" stroke="black" d="M1730.19,-143.97C1816.81,-132.72 1929.6,-118.07 2014.61,-107.03"/>
<polygon fill="black" stroke="black" points="2015.1,-110.49 2024.57,-105.73 2014.2,-103.55 2015.1,-110.49"/>
</g>
<!-- [root] var.region -->
<g id="node13" class="node">
<title>[root] var.region</title>
<polygon fill="none" stroke="black" points="1145.52,-36 1062.52,-36 1062.52,0 1151.52,0 1151.52,-30 1145.52,-36"/>
<polyline fill="none" stroke="black" points="1145.52,-36 1145.52,-30 "/>
<polyline fill="none" stroke="black" points="1151.52,-30 1145.52,-30 "/>
<text text-anchor="middle" x="1107.02" y="-14.3" font-family="Times,serif" font-size="14.00">var.region</text>
</g>
<!-- [root] provider[&quot;registry.terraform.io/hashicorp/aws&quot;]&#45;&gt;[root] var.region -->
<g id="edge35" class="edge">
<title>[root] provider[&quot;registry.terraform.io/hashicorp/aws&quot;]&#45;&gt;[root] var.region</title>
<path fill="none" stroke="black" d="M1480.68,-76.49C1388.7,-62.33 1241.44,-39.68 1162.04,-27.46"/>
<polygon fill="black" stroke="black" points="1162.18,-23.94 1151.77,-25.88 1161.12,-30.86 1162.18,-23.94"/>
</g>
<!-- [root] var.ec2_instance_type -->
<g id="node11" class="node">
<title>[root] var.ec2_instance_type</title>
<polygon fill="none" stroke="black" points="492.52,-252 325.52,-252 325.52,-216 498.52,-216 498.52,-246 492.52,-252"/>
<polyline fill="none" stroke="black" points="492.52,-252 492.52,-246 "/>
<polyline fill="none" stroke="black" points="498.52,-246 492.52,-246 "/>
<text text-anchor="middle" x="412.02" y="-230.3" font-family="Times,serif" font-size="14.00">var.ec2_instance_type</text>
</g>
<!-- [root] var.ec2_pem_key -->
<g id="node12" class="node">
<title>[root] var.ec2_pem_key</title>
<polygon fill="none" stroke="black" points="948.52,-252 817.52,-252 817.52,-216 954.52,-216 954.52,-246 948.52,-252"/>
<polyline fill="none" stroke="black" points="948.52,-252 948.52,-246 "/>
<polyline fill="none" stroke="black" points="954.52,-246 948.52,-246 "/>
<text text-anchor="middle" x="886.02" y="-230.3" font-family="Times,serif" font-size="14.00">var.ec2_pem_key</text>
</g>
<!-- [root] var.tags -->
<g id="node14" class="node">
<title>[root] var.tags</title>
<polygon fill="none" stroke="black" points="2299.02,-36 2231.02,-36 2231.02,0 2305.02,0 2305.02,-30 2299.02,-36"/>
<polyline fill="none" stroke="black" points="2299.02,-36 2299.02,-30 "/>
<polyline fill="none" stroke="black" points="2305.02,-30 2299.02,-30 "/>
<text text-anchor="middle" x="2268.02" y="-14.3" font-family="Times,serif" font-size="14.00">var.tags</text>
</g>
<!-- [root] module.ec2_web_server (close) -->
<g id="node15" class="node">
<title>[root] module.ec2_web_server (close)</title>
<ellipse fill="none" stroke="black" cx="1475.02" cy="-594" rx="183.07" ry="18"/>
<text text-anchor="middle" x="1475.02" y="-590.3" font-family="Times,serif" font-size="14.00">[root] module.ec2_web_server (close)</text>
</g>
<!-- [root] module.ec2_web_server (close)&#45;&gt;[root] module.ec2_web_server.aws_route_table_association.main (expand) -->
<g id="edge1" class="edge">
<title>[root] module.ec2_web_server (close)&#45;&gt;[root] module.ec2_web_server.aws_route_table_association.main (expand)</title>
<path fill="none" stroke="black" d="M1551.16,-577.55C1602.72,-567.09 1671.19,-553.2 1726.13,-542.05"/>
<polygon fill="black" stroke="black" points="1727.12,-545.42 1736.22,-540 1725.73,-538.56 1727.12,-545.42"/>
</g>
<!-- [root] module.ec2_web_server.output.elastic_ip (expand) -->
<g id="node16" class="node">
<title>[root] module.ec2_web_server.output.elastic_ip (expand)</title>
<ellipse fill="none" stroke="black" cx="670.02" cy="-522" rx="272.15" ry="18"/>
<text text-anchor="middle" x="670.02" y="-518.3" font-family="Times,serif" font-size="14.00">[root] module.ec2_web_server.output.elastic_ip (expand)</text>
</g>
<!-- [root] module.ec2_web_server (close)&#45;&gt;[root] module.ec2_web_server.output.elastic_ip (expand) -->
<g id="edge2" class="edge">
<title>[root] module.ec2_web_server (close)&#45;&gt;[root] module.ec2_web_server.output.elastic_ip (expand)</title>
<path fill="none" stroke="black" d="M1344.12,-581.37C1323.67,-579.57 1302.78,-577.73 1283.02,-576 1132.94,-562.87 962.17,-548.12 839.06,-537.52"/>
<polygon fill="black" stroke="black" points="839.06,-534.01 828.8,-536.64 838.46,-540.98 839.06,-534.01"/>
</g>
<!-- [root] module.ec2_web_server.output.ssh_command (expand) -->
<g id="node17" class="node">
<title>[root] module.ec2_web_server.output.ssh_command (expand)</title>
<ellipse fill="none" stroke="black" cx="1254.02" cy="-522" rx="293.55" ry="18"/>
<text text-anchor="middle" x="1254.02" y="-518.3" font-family="Times,serif" font-size="14.00">[root] module.ec2_web_server.output.ssh_command (expand)</text>
</g>
<!-- [root] module.ec2_web_server (close)&#45;&gt;[root] module.ec2_web_server.output.ssh_command (expand) -->
<g id="edge3" class="edge">
<title>[root] module.ec2_web_server (close)&#45;&gt;[root] module.ec2_web_server.output.ssh_command (expand)</title>
<path fill="none" stroke="black" d="M1423.49,-576.68C1391.56,-566.56 1350.35,-553.51 1316.57,-542.81"/>
<polygon fill="black" stroke="black" points="1317.38,-539.4 1306.79,-539.71 1315.27,-546.07 1317.38,-539.4"/>
</g>
<!-- [root] module.ec2_web_server.output.elastic_ip (expand)&#45;&gt;[root] module.ec2_web_server.aws_eip.main (expand) -->
<g id="edge20" class="edge">
<title>[root] module.ec2_web_server.output.elastic_ip (expand)&#45;&gt;[root] module.ec2_web_server.aws_eip.main (expand)</title>
<path fill="none" stroke="black" d="M795.31,-505.98C885.13,-495.22 1006.61,-480.66 1101.99,-469.22"/>
<polygon fill="black" stroke="black" points="1102.51,-472.69 1112.02,-468.02 1101.67,-465.74 1102.51,-472.69"/>
</g>
<!-- [root] module.ec2_web_server.output.ssh_command (expand)&#45;&gt;[root] module.ec2_web_server.aws_eip.main (expand) -->
<g id="edge21" class="edge">
<title>[root] module.ec2_web_server.output.ssh_command (expand)&#45;&gt;[root] module.ec2_web_server.aws_eip.main (expand)</title>
<path fill="none" stroke="black" d="M1254.02,-503.7C1254.02,-495.98 1254.02,-486.71 1254.02,-478.11"/>
<polygon fill="black" stroke="black" points="1257.52,-478.1 1254.02,-468.1 1250.52,-478.1 1257.52,-478.1"/>
</g>
<!-- [root] module.ec2_web_server.var.ec2_instance_type (expand)&#45;&gt;[root] var.ec2_instance_type -->
<g id="edge23" class="edge">
<title>[root] module.ec2_web_server.var.ec2_instance_type (expand)&#45;&gt;[root] var.ec2_instance_type</title>
<path fill="none" stroke="black" d="M324.86,-288.05C340.01,-278.84 358.93,-267.32 375.27,-257.37"/>
<polygon fill="black" stroke="black" points="377.32,-260.22 384.04,-252.03 373.68,-254.24 377.32,-260.22"/>
</g>
<!-- [root] module.ec2_web_server (expand) -->
<g id="node22" class="node">
<title>[root] module.ec2_web_server (expand)</title>
<ellipse fill="none" stroke="black" cx="844.02" cy="-18" rx="193.87" ry="18"/>
<text text-anchor="middle" x="844.02" y="-14.3" font-family="Times,serif" font-size="14.00">[root] module.ec2_web_server (expand)</text>
</g>
<!-- [root] module.ec2_web_server.var.ec2_instance_type (expand)&#45;&gt;[root] module.ec2_web_server (expand) -->
<g id="edge22" class="edge">
<title>[root] module.ec2_web_server.var.ec2_instance_type (expand)&#45;&gt;[root] module.ec2_web_server (expand)</title>
<path fill="none" stroke="black" d="M296.07,-287.8C295.92,-268.14 298.68,-236.09 316.02,-216 414.88,-101.45 586.99,-53.41 707.77,-33.32"/>
<polygon fill="black" stroke="black" points="708.52,-36.74 717.83,-31.69 707.4,-29.83 708.52,-36.74"/>
</g>
<!-- [root] module.ec2_web_server.var.ec2_pem_key (expand)&#45;&gt;[root] var.ec2_pem_key -->
<g id="edge25" class="edge">
<title>[root] module.ec2_web_server.var.ec2_pem_key (expand)&#45;&gt;[root] var.ec2_pem_key</title>
<path fill="none" stroke="black" d="M886.02,-287.7C886.02,-279.98 886.02,-270.71 886.02,-262.11"/>
<polygon fill="black" stroke="black" points="889.52,-262.1 886.02,-252.1 882.52,-262.1 889.52,-262.1"/>
</g>
<!-- [root] module.ec2_web_server.var.ec2_pem_key (expand)&#45;&gt;[root] module.ec2_web_server (expand) -->
<g id="edge24" class="edge">
<title>[root] module.ec2_web_server.var.ec2_pem_key (expand)&#45;&gt;[root] module.ec2_web_server (expand)</title>
<path fill="none" stroke="black" d="M855.13,-288.11C840.02,-278.81 822.27,-266.28 809.02,-252 758.63,-197.69 744.36,-179.53 725.02,-108 720.85,-92.55 716.31,-85.42 725.02,-72 734.5,-57.41 749.02,-46.81 764.7,-39.11"/>
<polygon fill="black" stroke="black" points="766.35,-42.2 774.03,-34.9 763.48,-35.82 766.35,-42.2"/>
</g>
<!-- [root] module.ec2_web_server.var.region (expand)&#45;&gt;[root] var.region -->
<g id="edge27" class="edge">
<title>[root] module.ec2_web_server.var.region (expand)&#45;&gt;[root] var.region</title>
<path fill="none" stroke="black" d="M1007.74,-72.05C1025.31,-62.67 1047.34,-50.89 1066.19,-40.82"/>
<polygon fill="black" stroke="black" points="1067.98,-43.83 1075.15,-36.03 1064.68,-37.66 1067.98,-43.83"/>
</g>
<!-- [root] module.ec2_web_server.var.region (expand)&#45;&gt;[root] module.ec2_web_server (expand) -->
<g id="edge26" class="edge">
<title>[root] module.ec2_web_server.var.region (expand)&#45;&gt;[root] module.ec2_web_server (expand)</title>
<path fill="none" stroke="black" d="M944.07,-72.05C926.23,-62.6 903.83,-50.72 884.75,-40.6"/>
<polygon fill="black" stroke="black" points="886.16,-37.38 875.68,-35.79 882.88,-43.57 886.16,-37.38"/>
</g>
<!-- [root] module.ec2_web_server.var.tags (expand)&#45;&gt;[root] var.tags -->
<g id="edge29" class="edge">
<title>[root] module.ec2_web_server.var.tags (expand)&#45;&gt;[root] var.tags</title>
<path fill="none" stroke="black" d="M2169.49,-72.05C2186.93,-62.67 2208.8,-50.89 2227.5,-40.82"/>
<polygon fill="black" stroke="black" points="2229.25,-43.85 2236.39,-36.03 2225.93,-37.69 2229.25,-43.85"/>
</g>
<!-- [root] module.ec2_web_server.var.tags (expand)&#45;&gt;[root] module.ec2_web_server (expand) -->
<g id="edge28" class="edge">
<title>[root] module.ec2_web_server.var.tags (expand)&#45;&gt;[root] module.ec2_web_server (expand)</title>
<path fill="none" stroke="black" d="M1976.32,-77.02C1949.51,-75.22 1921.99,-73.47 1896.02,-72 1522.06,-50.87 1427.87,-59.12 1054.02,-36 1033.46,-34.73 1011.78,-33.19 990.47,-31.57"/>
<polygon fill="black" stroke="black" points="990.61,-28.07 980.37,-30.8 990.08,-35.05 990.61,-28.07"/>
</g>
<!-- [root] output.a0_enviroment (expand) -->
<g id="node23" class="node">
<title>[root] output.a0_enviroment (expand)</title>
<ellipse fill="none" stroke="black" cx="2380.02" cy="-162" rx="185.47" ry="18"/>
<text text-anchor="middle" x="2380.02" y="-158.3" font-family="Times,serif" font-size="14.00">[root] output.a0_enviroment (expand)</text>
</g>
<!-- [root] output.a0_enviroment (expand)&#45;&gt;[root] var.tags -->
<g id="edge30" class="edge">
<title>[root] output.a0_enviroment (expand)&#45;&gt;[root] var.tags</title>
<path fill="none" stroke="black" d="M2385.11,-143.77C2389.67,-124.66 2393.74,-93.67 2380.02,-72 2365.66,-49.32 2338.68,-36.15 2314.8,-28.62"/>
<polygon fill="black" stroke="black" points="2315.73,-25.24 2305.15,-25.82 2313.78,-31.97 2315.73,-25.24"/>
</g>
<!-- [root] output.ec2_web_server&#45;&#45;&#45;elastic_ip (expand) -->
<g id="node24" class="node">
<title>[root] output.ec2_web_server&#45;&#45;&#45;elastic_ip (expand)</title>
<ellipse fill="none" stroke="black" cx="486.02" cy="-594" rx="242.36" ry="18"/>
<text text-anchor="middle" x="486.02" y="-590.3" font-family="Times,serif" font-size="14.00">[root] output.ec2_web_server&#45;&#45;&#45;elastic_ip (expand)</text>
</g>
<!-- [root] output.ec2_web_server&#45;&#45;&#45;elastic_ip (expand)&#45;&gt;[root] module.ec2_web_server.output.elastic_ip (expand) -->
<g id="edge31" class="edge">
<title>[root] output.ec2_web_server&#45;&#45;&#45;elastic_ip (expand)&#45;&gt;[root] module.ec2_web_server.output.elastic_ip (expand)</title>
<path fill="none" stroke="black" d="M530.1,-576.23C555.96,-566.39 588.85,-553.88 616.24,-543.46"/>
<polygon fill="black" stroke="black" points="617.57,-546.7 625.67,-539.87 615.08,-540.16 617.57,-546.7"/>
</g>
<!-- [root] output.ec2_web_server&#45;&#45;&#45;ssh_command (expand) -->
<g id="node25" class="node">
<title>[root] output.ec2_web_server&#45;&#45;&#45;ssh_command (expand)</title>
<ellipse fill="none" stroke="black" cx="1010.02" cy="-594" rx="263.75" ry="18"/>
<text text-anchor="middle" x="1010.02" y="-590.3" font-family="Times,serif" font-size="14.00">[root] output.ec2_web_server&#45;&#45;&#45;ssh_command (expand)</text>
</g>
<!-- [root] output.ec2_web_server&#45;&#45;&#45;ssh_command (expand)&#45;&gt;[root] module.ec2_web_server.output.ssh_command (expand) -->
<g id="edge32" class="edge">
<title>[root] output.ec2_web_server&#45;&#45;&#45;ssh_command (expand)&#45;&gt;[root] module.ec2_web_server.output.ssh_command (expand)</title>
<path fill="none" stroke="black" d="M1067.85,-576.41C1103.29,-566.24 1148.84,-553.17 1186.02,-542.51"/>
<polygon fill="black" stroke="black" points="1187.12,-545.83 1195.77,-539.71 1185.19,-539.11 1187.12,-545.83"/>
</g>
<!-- [root] provider[&quot;registry.terraform.io/hashicorp/aws&quot;] (close) -->
<g id="node26" class="node">
<title>[root] provider[&quot;registry.terraform.io/hashicorp/aws&quot;] (close)</title>
<ellipse fill="none" stroke="black" cx="1968.02" cy="-594" rx="291.65" ry="18"/>
<text text-anchor="middle" x="1968.02" y="-590.3" font-family="Times,serif" font-size="14.00">[root] provider[&quot;registry.terraform.io/hashicorp/aws&quot;] (close)</text>
</g>
<!-- [root] provider[&quot;registry.terraform.io/hashicorp/aws&quot;] (close)&#45;&gt;[root] module.ec2_web_server.aws_eip.main (expand) -->
<g id="edge33" class="edge">
<title>[root] provider[&quot;registry.terraform.io/hashicorp/aws&quot;] (close)&#45;&gt;[root] module.ec2_web_server.aws_eip.main (expand)</title>
<path fill="none" stroke="black" d="M1802.94,-579.15C1721.33,-570.38 1632.63,-557.39 1596.02,-540 1574.72,-529.88 1578.17,-514.46 1557.02,-504 1511.12,-481.3 1457.09,-468.17 1407.47,-460.62"/>
<polygon fill="black" stroke="black" points="1407.68,-457.12 1397.28,-459.14 1406.67,-464.04 1407.68,-457.12"/>
</g>
<!-- [root] provider[&quot;registry.terraform.io/hashicorp/aws&quot;] (close)&#45;&gt;[root] module.ec2_web_server.aws_route_table_association.main (expand) -->
<g id="edge34" class="edge">
<title>[root] provider[&quot;registry.terraform.io/hashicorp/aws&quot;] (close)&#45;&gt;[root] module.ec2_web_server.aws_route_table_association.main (expand)</title>
<path fill="none" stroke="black" d="M1932.2,-576.05C1912.08,-566.54 1886.77,-554.57 1865.29,-544.41"/>
<polygon fill="black" stroke="black" points="1866.57,-541.14 1856.03,-540.03 1863.58,-547.47 1866.57,-541.14"/>
</g>
<!-- [root] root -->
<g id="node27" class="node">
<title>[root] root</title>
<ellipse fill="none" stroke="black" cx="1475.02" cy="-666" rx="58.49" ry="18"/>
<text text-anchor="middle" x="1475.02" y="-662.3" font-family="Times,serif" font-size="14.00">[root] root</text>
</g>
<!-- [root] root&#45;&gt;[root] module.ec2_web_server (close) -->
<g id="edge36" class="edge">
<title>[root] root&#45;&gt;[root] module.ec2_web_server (close)</title>
<path fill="none" stroke="black" d="M1475.02,-647.7C1475.02,-639.98 1475.02,-630.71 1475.02,-622.11"/>
<polygon fill="black" stroke="black" points="1478.52,-622.1 1475.02,-612.1 1471.52,-622.1 1478.52,-622.1"/>
</g>
<!-- [root] root&#45;&gt;[root] output.a0_enviroment (expand) -->
<g id="edge37" class="edge">
<title>[root] root&#45;&gt;[root] output.a0_enviroment (expand)</title>
<path fill="none" stroke="black" d="M1533.21,-663.4C1705.01,-658.38 2202.26,-641.42 2269.02,-612 2321.38,-588.93 2362.02,-580.21 2362.02,-523 2362.02,-523 2362.02,-523 2362.02,-305 2362.02,-264.9 2369.18,-218.92 2374.46,-190.42"/>
<polygon fill="black" stroke="black" points="2377.94,-190.88 2376.38,-180.4 2371.06,-189.56 2377.94,-190.88"/>
</g>
<!-- [root] root&#45;&gt;[root] output.ec2_web_server&#45;&#45;&#45;elastic_ip (expand) -->
<g id="edge38" class="edge">
<title>[root] root&#45;&gt;[root] output.ec2_web_server&#45;&#45;&#45;elastic_ip (expand)</title>
<path fill="none" stroke="black" d="M1418.66,-661.01C1275.5,-650.88 893.11,-623.81 664.87,-607.66"/>
<polygon fill="black" stroke="black" points="665.02,-604.16 654.79,-606.95 664.52,-611.14 665.02,-604.16"/>
</g>
<!-- [root] root&#45;&gt;[root] output.ec2_web_server&#45;&#45;&#45;ssh_command (expand) -->
<g id="edge39" class="edge">
<title>[root] root&#45;&gt;[root] output.ec2_web_server&#45;&#45;&#45;ssh_command (expand)</title>
<path fill="none" stroke="black" d="M1423.48,-657.24C1351.54,-646.41 1219.11,-626.48 1123.48,-612.08"/>
<polygon fill="black" stroke="black" points="1123.88,-608.6 1113.47,-610.57 1122.84,-615.52 1123.88,-608.6"/>
</g>
<!-- [root] root&#45;&gt;[root] provider[&quot;registry.terraform.io/hashicorp/aws&quot;] (close) -->
<g id="edge40" class="edge">
<title>[root] root&#45;&gt;[root] provider[&quot;registry.terraform.io/hashicorp/aws&quot;] (close)</title>
<path fill="none" stroke="black" d="M1526.85,-657.64C1602.34,-646.92 1744.69,-626.71 1847.31,-612.14"/>
<polygon fill="black" stroke="black" points="1848.01,-615.58 1857.42,-610.7 1847.03,-608.64 1848.01,-615.58"/>
</g>
</g>
</svg>
